<svg xmlns="http://www.w3.org/2000/svg" version="1.1" xmlns:xlink="http://www.w3.org/1999/xlink" width="512" height="512" x="0" y="0" viewBox="0 0 127000 127000" style="enable-background:new 0 0 512 512" xml:space="preserve" fill-rule="evenodd"><g><path d="M63501 29640c8338 0 16236 2233 23291 5571L72994 46857c-2799-1601-6040-2516-9494-2516-10579 0-19159 8580-19159 19159 0 2306 408 4519 1156 6567L28227 84644C17045 76511 9821 66878 9343 63526h-9l5-26-5-26h9c883-6194 24796-33834 54158-33834zm34688 12308c11511 8225 18981 18136 19469 21526h9l-5 26 5 26h-9c-887 6158-24799 33834-54157 33834-8609 0-16749-2377-23978-5893l13858-11698c2936 1831 6404 2890 10119 2890 10579 0 19159-8580 19159-19159 0-2564-505-5009-1419-7245z" fill="#ff0000" opacity="1" data-original="#ff0000"/><path fill-rule="nonzero" d="m95495 26991 1163-986c404-343 894-472 1415-371 521 100 928 402 1176 871l2089 3947c376 711 212 1564-402 2084l-1731 1467-73527 62061-1164 986c-405 343-894 472-1415 371-521-100-928-402-1176-871l-2089-3947c-376-711-211-1564 402-2084l1732-1467z" fill="#ff0000" opacity="1" data-original="#ff0000"/></g></svg>